<mxfile host="65bd71144e">
    <diagram name="Страница — 1" id="sYu_HGvOVfBq5jBQzO7U">
        <mxGraphModel dx="1000" dy="804" grid="1" gridSize="10" guides="1" tooltips="1" connect="1" arrows="1" fold="1" page="1" pageScale="1" pageWidth="827" pageHeight="1169" math="0" shadow="0">
            <root>
                <mxCell id="0"/>
                <mxCell id="1" parent="0"/>
                <mxCell id="R2Y4Mc8VDY8_fYzSi5us-1" style="edgeStyle=orthogonalEdgeStyle;rounded=0;orthogonalLoop=1;jettySize=auto;html=1;entryX=0.5;entryY=0;entryDx=0;entryDy=0;" parent="1" source="R2Y4Mc8VDY8_fYzSi5us-2" target="R2Y4Mc8VDY8_fYzSi5us-4" edge="1">
                    <mxGeometry relative="1" as="geometry"/>
                </mxCell>
                <mxCell id="R2Y4Mc8VDY8_fYzSi5us-2" value="&lt;font style=&quot;font-size: 14px;&quot;&gt;Початок&lt;/font&gt;" style="rounded=1;whiteSpace=wrap;html=1;arcSize=50;" parent="1" vertex="1">
                    <mxGeometry x="350" y="70" width="120" height="40" as="geometry"/>
                </mxCell>
                <mxCell id="R2Y4Mc8VDY8_fYzSi5us-3" style="edgeStyle=orthogonalEdgeStyle;rounded=0;orthogonalLoop=1;jettySize=auto;html=1;entryX=0.5;entryY=0;entryDx=0;entryDy=0;exitX=0.5;exitY=1;exitDx=0;exitDy=0;" parent="1" source="4" target="R2Y4Mc8VDY8_fYzSi5us-6" edge="1">
                    <mxGeometry relative="1" as="geometry">
                        <mxPoint x="410" y="440" as="sourcePoint"/>
                    </mxGeometry>
                </mxCell>
                <mxCell id="3" style="edgeStyle=none;html=1;entryX=0.5;entryY=0;entryDx=0;entryDy=0;fontSize=14;" edge="1" parent="1" source="R2Y4Mc8VDY8_fYzSi5us-4" target="2">
                    <mxGeometry relative="1" as="geometry"/>
                </mxCell>
                <mxCell id="R2Y4Mc8VDY8_fYzSi5us-4" value="&lt;font style=&quot;font-size: 14px;&quot;&gt;Завантаження моделі&lt;/font&gt;" style="rounded=0;whiteSpace=wrap;html=1;" parent="1" vertex="1">
                    <mxGeometry x="350" y="160" width="120" height="60" as="geometry"/>
                </mxCell>
                <mxCell id="R2Y4Mc8VDY8_fYzSi5us-5" style="edgeStyle=orthogonalEdgeStyle;rounded=0;orthogonalLoop=1;jettySize=auto;html=1;" parent="1" source="R2Y4Mc8VDY8_fYzSi5us-6" target="R2Y4Mc8VDY8_fYzSi5us-8" edge="1">
                    <mxGeometry relative="1" as="geometry"/>
                </mxCell>
                <mxCell id="R2Y4Mc8VDY8_fYzSi5us-6" value="&lt;font style=&quot;font-size: 14px;&quot;&gt;Завантаження зображення&lt;/font&gt;" style="rounded=0;whiteSpace=wrap;html=1;" parent="1" vertex="1">
                    <mxGeometry x="350" y="490" width="120" height="60" as="geometry"/>
                </mxCell>
                <mxCell id="R2Y4Mc8VDY8_fYzSi5us-7" style="edgeStyle=orthogonalEdgeStyle;rounded=0;orthogonalLoop=1;jettySize=auto;html=1;entryX=0.5;entryY=0;entryDx=0;entryDy=0;" parent="1" source="R2Y4Mc8VDY8_fYzSi5us-8" target="R2Y4Mc8VDY8_fYzSi5us-10" edge="1">
                    <mxGeometry relative="1" as="geometry"/>
                </mxCell>
                <mxCell id="R2Y4Mc8VDY8_fYzSi5us-8" value="&lt;font style=&quot;font-size: 14px;&quot;&gt;Визначення порогу впевненості&lt;/font&gt;" style="rounded=0;whiteSpace=wrap;html=1;" parent="1" vertex="1">
                    <mxGeometry x="350" y="600" width="120" height="70" as="geometry"/>
                </mxCell>
                <mxCell id="8" style="edgeStyle=none;html=1;entryX=0.5;entryY=0;entryDx=0;entryDy=0;fontSize=14;" edge="1" parent="1" source="R2Y4Mc8VDY8_fYzSi5us-10" target="6">
                    <mxGeometry relative="1" as="geometry"/>
                </mxCell>
                <mxCell id="R2Y4Mc8VDY8_fYzSi5us-10" value="&lt;font style=&quot;font-size: 14px;&quot;&gt;Передбачення нейронної мережі&lt;/font&gt;" style="rounded=0;whiteSpace=wrap;html=1;" parent="1" vertex="1">
                    <mxGeometry x="350" y="720" width="120" height="60" as="geometry"/>
                </mxCell>
                <mxCell id="R2Y4Mc8VDY8_fYzSi5us-11" style="edgeStyle=orthogonalEdgeStyle;rounded=0;orthogonalLoop=1;jettySize=auto;html=1;entryX=0.5;entryY=0;entryDx=0;entryDy=0;" parent="1" source="R2Y4Mc8VDY8_fYzSi5us-12" target="R2Y4Mc8VDY8_fYzSi5us-14" edge="1">
                    <mxGeometry relative="1" as="geometry"/>
                </mxCell>
                <mxCell id="R2Y4Mc8VDY8_fYzSi5us-12" value="&lt;font style=&quot;font-size: 14px;&quot;&gt;Відображення кількості мін&lt;/font&gt;" style="rounded=0;whiteSpace=wrap;html=1;" parent="1" vertex="1">
                    <mxGeometry x="564" y="820" width="120" height="60" as="geometry"/>
                </mxCell>
                <mxCell id="R2Y4Mc8VDY8_fYzSi5us-13" style="edgeStyle=orthogonalEdgeStyle;rounded=0;orthogonalLoop=1;jettySize=auto;html=1;entryX=0.5;entryY=0;entryDx=0;entryDy=0;" parent="1" source="R2Y4Mc8VDY8_fYzSi5us-14" edge="1" target="16">
                    <mxGeometry relative="1" as="geometry">
                        <mxPoint x="624" y="1039.9999999999998" as="targetPoint"/>
                        <Array as="points">
                            <mxPoint x="620" y="1030"/>
                            <mxPoint x="495" y="1030"/>
                        </Array>
                    </mxGeometry>
                </mxCell>
                <mxCell id="R2Y4Mc8VDY8_fYzSi5us-14" value="&lt;span style=&quot;font-size: 14px;&quot;&gt;Відображення зображення з рамками&lt;/span&gt;" style="rounded=0;whiteSpace=wrap;html=1;" parent="1" vertex="1">
                    <mxGeometry x="564" y="930" width="120" height="60" as="geometry"/>
                </mxCell>
                <mxCell id="R2Y4Mc8VDY8_fYzSi5us-17" value="&lt;font style=&quot;font-size: 14px;&quot;&gt;Кінець&lt;/font&gt;" style="rounded=1;whiteSpace=wrap;html=1;arcSize=50;" parent="1" vertex="1">
                    <mxGeometry x="435" y="1180" width="120" height="40" as="geometry"/>
                </mxCell>
                <mxCell id="5" value="" style="edgeStyle=none;html=1;fontSize=14;" edge="1" parent="1" source="2" target="4">
                    <mxGeometry relative="1" as="geometry">
                        <Array as="points">
                            <mxPoint x="410" y="380"/>
                        </Array>
                    </mxGeometry>
                </mxCell>
                <mxCell id="2" value="Відображення інформації про проєкт" style="rounded=0;whiteSpace=wrap;html=1;fontSize=14;" vertex="1" parent="1">
                    <mxGeometry x="350" y="280" width="120" height="60" as="geometry"/>
                </mxCell>
                <mxCell id="4" value="Головне вікно програми" style="rounded=0;whiteSpace=wrap;html=1;fontSize=14;" vertex="1" parent="1">
                    <mxGeometry x="350" y="380" width="120" height="60" as="geometry"/>
                </mxCell>
                <mxCell id="7" style="edgeStyle=none;html=1;entryX=0;entryY=0.5;entryDx=0;entryDy=0;fontSize=14;" edge="1" parent="1" source="6" target="R2Y4Mc8VDY8_fYzSi5us-12">
                    <mxGeometry relative="1" as="geometry"/>
                </mxCell>
                <mxCell id="10" style="edgeStyle=none;html=1;entryX=0.5;entryY=0;entryDx=0;entryDy=0;fontSize=14;" edge="1" parent="1" source="6" target="9">
                    <mxGeometry relative="1" as="geometry"/>
                </mxCell>
                <mxCell id="6" value="Міни знайдені" style="rhombus;whiteSpace=wrap;html=1;fontSize=14;" vertex="1" parent="1">
                    <mxGeometry x="370" y="810" width="80" height="80" as="geometry"/>
                </mxCell>
                <mxCell id="9" value="Відображення повідомлення &quot;Мін не знайдено&quot;" style="rounded=0;whiteSpace=wrap;html=1;fontSize=14;" vertex="1" parent="1">
                    <mxGeometry x="350" y="930" width="120" height="60" as="geometry"/>
                </mxCell>
                <mxCell id="22" style="edgeStyle=none;html=1;entryX=0.5;entryY=0;entryDx=0;entryDy=0;fontSize=14;" edge="1" parent="1" source="16" target="R2Y4Mc8VDY8_fYzSi5us-17">
                    <mxGeometry relative="1" as="geometry"/>
                </mxCell>
                <mxCell id="16" value="Закінчити роботу" style="rhombus;whiteSpace=wrap;html=1;fontSize=14;" vertex="1" parent="1">
                    <mxGeometry x="450" y="1060" width="90" height="80" as="geometry"/>
                </mxCell>
                <mxCell id="21" style="edgeStyle=orthogonalEdgeStyle;rounded=0;orthogonalLoop=1;jettySize=auto;html=1;entryX=0.5;entryY=0;entryDx=0;entryDy=0;exitX=0.5;exitY=1;exitDx=0;exitDy=0;" edge="1" parent="1" source="9" target="16">
                    <mxGeometry relative="1" as="geometry">
                        <mxPoint x="505" y="1070" as="targetPoint"/>
                        <mxPoint x="630" y="1000" as="sourcePoint"/>
                        <Array as="points">
                            <mxPoint x="410" y="1030"/>
                            <mxPoint x="495" y="1030"/>
                        </Array>
                    </mxGeometry>
                </mxCell>
                <mxCell id="24" style="edgeStyle=orthogonalEdgeStyle;rounded=0;orthogonalLoop=1;jettySize=auto;html=1;entryX=0;entryY=0.5;entryDx=0;entryDy=0;exitX=0;exitY=0.5;exitDx=0;exitDy=0;" edge="1" parent="1" source="16" target="R2Y4Mc8VDY8_fYzSi5us-6">
                    <mxGeometry relative="1" as="geometry">
                        <mxPoint x="394.9999999999998" y="1140" as="targetPoint"/>
                        <mxPoint x="300" y="1090" as="sourcePoint"/>
                        <Array as="points">
                            <mxPoint x="310" y="1100"/>
                            <mxPoint x="310" y="520"/>
                        </Array>
                    </mxGeometry>
                </mxCell>
                <mxCell id="25" value="Так" style="text;html=1;strokeColor=none;fillColor=none;align=center;verticalAlign=middle;whiteSpace=wrap;rounded=0;fontSize=14;" vertex="1" parent="1">
                    <mxGeometry x="465" y="820" width="60" height="30" as="geometry"/>
                </mxCell>
                <mxCell id="27" value="Ні" style="text;html=1;strokeColor=none;fillColor=none;align=center;verticalAlign=middle;whiteSpace=wrap;rounded=0;fontSize=14;" vertex="1" parent="1">
                    <mxGeometry x="390" y="890" width="60" height="30" as="geometry"/>
                </mxCell>
                <mxCell id="28" value="Так" style="text;html=1;strokeColor=none;fillColor=none;align=center;verticalAlign=middle;whiteSpace=wrap;rounded=0;fontSize=14;" vertex="1" parent="1">
                    <mxGeometry x="490" y="1139" width="60" height="30" as="geometry"/>
                </mxCell>
                <mxCell id="29" value="Ні" style="text;html=1;strokeColor=none;fillColor=none;align=center;verticalAlign=middle;whiteSpace=wrap;rounded=0;fontSize=14;" vertex="1" parent="1">
                    <mxGeometry x="380" y="1070" width="60" height="30" as="geometry"/>
                </mxCell>
            </root>
        </mxGraphModel>
    </diagram>
</mxfile>